<mxfile host="app.diagrams.net" modified="2023-09-27T05:16:49.121Z" agent="Mozilla/5.0 (Windows NT 10.0; Win64; x64) AppleWebKit/537.36 (KHTML, like Gecko) Chrome/116.0.0.0 Safari/537.36" etag="vrvCE2BaaIGFqzJ7AkZE" version="21.7.5" type="github">
  <diagram name="Page-1" id="ad60aNhUzU28Lh_kHzEz">
    <mxGraphModel dx="1588" dy="864" grid="1" gridSize="10" guides="1" tooltips="1" connect="1" arrows="1" fold="1" page="1" pageScale="1" pageWidth="850" pageHeight="1100" math="0" shadow="0">
      <root>
        <mxCell id="0" />
        <mxCell id="1" parent="0" />
        <mxCell id="nITirE5ctKMhn2N52Sr5-65" value="" style="rounded=1;whiteSpace=wrap;html=1;fillColor=#ffe6cc;strokeColor=#d79b00;" vertex="1" parent="1">
          <mxGeometry x="750" y="410" width="260" height="170" as="geometry" />
        </mxCell>
        <mxCell id="nITirE5ctKMhn2N52Sr5-1" value="Age" style="ellipse;whiteSpace=wrap;html=1;" vertex="1" parent="1">
          <mxGeometry x="20" y="50" width="100" height="40" as="geometry" />
        </mxCell>
        <mxCell id="nITirE5ctKMhn2N52Sr5-4" value="sex" style="ellipse;whiteSpace=wrap;html=1;" vertex="1" parent="1">
          <mxGeometry x="20" y="100" width="100" height="40" as="geometry" />
        </mxCell>
        <mxCell id="nITirE5ctKMhn2N52Sr5-5" value="cp" style="ellipse;whiteSpace=wrap;html=1;" vertex="1" parent="1">
          <mxGeometry x="20" y="150" width="100" height="40" as="geometry" />
        </mxCell>
        <mxCell id="nITirE5ctKMhn2N52Sr5-6" value="trestbps" style="ellipse;whiteSpace=wrap;html=1;" vertex="1" parent="1">
          <mxGeometry x="20" y="200" width="100" height="40" as="geometry" />
        </mxCell>
        <mxCell id="nITirE5ctKMhn2N52Sr5-7" value="fbs" style="ellipse;whiteSpace=wrap;html=1;" vertex="1" parent="1">
          <mxGeometry x="20" y="250" width="100" height="40" as="geometry" />
        </mxCell>
        <mxCell id="nITirE5ctKMhn2N52Sr5-8" value="restecg" style="ellipse;whiteSpace=wrap;html=1;" vertex="1" parent="1">
          <mxGeometry x="20" y="300" width="100" height="40" as="geometry" />
        </mxCell>
        <mxCell id="nITirE5ctKMhn2N52Sr5-9" value="thalach" style="ellipse;whiteSpace=wrap;html=1;" vertex="1" parent="1">
          <mxGeometry x="20" y="350" width="100" height="40" as="geometry" />
        </mxCell>
        <mxCell id="nITirE5ctKMhn2N52Sr5-10" value="exang" style="ellipse;whiteSpace=wrap;html=1;" vertex="1" parent="1">
          <mxGeometry x="20" y="400" width="100" height="40" as="geometry" />
        </mxCell>
        <mxCell id="nITirE5ctKMhn2N52Sr5-11" value="oldpeak" style="ellipse;whiteSpace=wrap;html=1;" vertex="1" parent="1">
          <mxGeometry x="20" y="450" width="100" height="40" as="geometry" />
        </mxCell>
        <mxCell id="nITirE5ctKMhn2N52Sr5-12" value="slope" style="ellipse;whiteSpace=wrap;html=1;" vertex="1" parent="1">
          <mxGeometry x="20" y="500" width="100" height="40" as="geometry" />
        </mxCell>
        <mxCell id="nITirE5ctKMhn2N52Sr5-13" value="ca" style="ellipse;whiteSpace=wrap;html=1;" vertex="1" parent="1">
          <mxGeometry x="20" y="550" width="100" height="40" as="geometry" />
        </mxCell>
        <mxCell id="nITirE5ctKMhn2N52Sr5-14" value="thal" style="ellipse;whiteSpace=wrap;html=1;" vertex="1" parent="1">
          <mxGeometry x="20" y="600" width="100" height="40" as="geometry" />
        </mxCell>
        <mxCell id="nITirE5ctKMhn2N52Sr5-15" value="num" style="ellipse;whiteSpace=wrap;html=1;" vertex="1" parent="1">
          <mxGeometry x="20" y="650" width="100" height="40" as="geometry" />
        </mxCell>
        <mxCell id="nITirE5ctKMhn2N52Sr5-16" value="" style="html=1;verticalLabelPosition=bottom;align=center;labelBackgroundColor=#ffffff;verticalAlign=top;strokeWidth=2;strokeColor=#0080F0;shadow=0;dashed=0;shape=mxgraph.ios7.icons.trashcan;" vertex="1" parent="1">
          <mxGeometry x="250" y="660" width="24" height="30" as="geometry" />
        </mxCell>
        <mxCell id="nITirE5ctKMhn2N52Sr5-18" value="" style="endArrow=classic;html=1;rounded=0;entryX=-0.056;entryY=0.067;entryDx=0;entryDy=0;entryPerimeter=0;" edge="1" parent="1" target="nITirE5ctKMhn2N52Sr5-16">
          <mxGeometry width="50" height="50" relative="1" as="geometry">
            <mxPoint x="120" y="620" as="sourcePoint" />
            <mxPoint x="170" y="570" as="targetPoint" />
          </mxGeometry>
        </mxCell>
        <mxCell id="nITirE5ctKMhn2N52Sr5-20" value="Drop Nans or malformed rows;&lt;br&gt;&lt;br&gt;drops rows where target &amp;gt; 400 (a serum cholesterol of 400mg/dl seemed unreasonable)" style="rounded=1;whiteSpace=wrap;html=1;" vertex="1" parent="1">
          <mxGeometry x="310" y="225" width="140" height="290" as="geometry" />
        </mxCell>
        <mxCell id="nITirE5ctKMhn2N52Sr5-21" value="" style="endArrow=classic;html=1;rounded=0;entryX=0;entryY=0.5;entryDx=0;entryDy=0;" edge="1" parent="1" target="nITirE5ctKMhn2N52Sr5-20">
          <mxGeometry width="50" height="50" relative="1" as="geometry">
            <mxPoint x="120" y="70" as="sourcePoint" />
            <mxPoint x="170" y="20" as="targetPoint" />
          </mxGeometry>
        </mxCell>
        <mxCell id="nITirE5ctKMhn2N52Sr5-22" value="" style="endArrow=classic;html=1;rounded=0;entryX=0;entryY=0.5;entryDx=0;entryDy=0;" edge="1" parent="1" target="nITirE5ctKMhn2N52Sr5-20">
          <mxGeometry width="50" height="50" relative="1" as="geometry">
            <mxPoint x="120" y="170" as="sourcePoint" />
            <mxPoint x="170" y="120" as="targetPoint" />
          </mxGeometry>
        </mxCell>
        <mxCell id="nITirE5ctKMhn2N52Sr5-23" value="" style="endArrow=classic;html=1;rounded=0;entryX=0;entryY=0.5;entryDx=0;entryDy=0;" edge="1" parent="1" target="nITirE5ctKMhn2N52Sr5-20">
          <mxGeometry width="50" height="50" relative="1" as="geometry">
            <mxPoint x="120" y="270" as="sourcePoint" />
            <mxPoint x="170" y="220" as="targetPoint" />
          </mxGeometry>
        </mxCell>
        <mxCell id="nITirE5ctKMhn2N52Sr5-24" value="" style="endArrow=classic;html=1;rounded=0;entryX=0;entryY=0.5;entryDx=0;entryDy=0;" edge="1" parent="1" target="nITirE5ctKMhn2N52Sr5-20">
          <mxGeometry width="50" height="50" relative="1" as="geometry">
            <mxPoint x="120" y="220" as="sourcePoint" />
            <mxPoint x="170" y="170" as="targetPoint" />
          </mxGeometry>
        </mxCell>
        <mxCell id="nITirE5ctKMhn2N52Sr5-25" value="" style="endArrow=classic;html=1;rounded=0;entryX=0;entryY=0.5;entryDx=0;entryDy=0;" edge="1" parent="1" target="nITirE5ctKMhn2N52Sr5-20">
          <mxGeometry width="50" height="50" relative="1" as="geometry">
            <mxPoint x="120" y="320" as="sourcePoint" />
            <mxPoint x="170" y="270" as="targetPoint" />
          </mxGeometry>
        </mxCell>
        <mxCell id="nITirE5ctKMhn2N52Sr5-26" value="" style="endArrow=classic;html=1;rounded=0;entryX=0;entryY=0.5;entryDx=0;entryDy=0;" edge="1" parent="1" target="nITirE5ctKMhn2N52Sr5-20">
          <mxGeometry width="50" height="50" relative="1" as="geometry">
            <mxPoint x="120" y="370" as="sourcePoint" />
            <mxPoint x="170" y="320" as="targetPoint" />
          </mxGeometry>
        </mxCell>
        <mxCell id="nITirE5ctKMhn2N52Sr5-27" value="" style="endArrow=classic;html=1;rounded=0;entryX=0;entryY=0.5;entryDx=0;entryDy=0;" edge="1" parent="1" target="nITirE5ctKMhn2N52Sr5-20">
          <mxGeometry width="50" height="50" relative="1" as="geometry">
            <mxPoint x="120" y="420" as="sourcePoint" />
            <mxPoint x="170" y="370" as="targetPoint" />
          </mxGeometry>
        </mxCell>
        <mxCell id="nITirE5ctKMhn2N52Sr5-28" value="" style="endArrow=classic;html=1;rounded=0;entryX=0;entryY=0.5;entryDx=0;entryDy=0;" edge="1" parent="1" target="nITirE5ctKMhn2N52Sr5-20">
          <mxGeometry width="50" height="50" relative="1" as="geometry">
            <mxPoint x="120" y="470" as="sourcePoint" />
            <mxPoint x="170" y="420" as="targetPoint" />
          </mxGeometry>
        </mxCell>
        <mxCell id="nITirE5ctKMhn2N52Sr5-29" value="" style="endArrow=classic;html=1;rounded=0;entryX=0;entryY=0.5;entryDx=0;entryDy=0;" edge="1" parent="1" target="nITirE5ctKMhn2N52Sr5-20">
          <mxGeometry width="50" height="50" relative="1" as="geometry">
            <mxPoint x="120" y="520" as="sourcePoint" />
            <mxPoint x="170" y="470" as="targetPoint" />
          </mxGeometry>
        </mxCell>
        <mxCell id="nITirE5ctKMhn2N52Sr5-30" value="" style="endArrow=classic;html=1;rounded=0;entryX=0;entryY=0.5;entryDx=0;entryDy=0;" edge="1" parent="1" target="nITirE5ctKMhn2N52Sr5-20">
          <mxGeometry width="50" height="50" relative="1" as="geometry">
            <mxPoint x="120" y="570" as="sourcePoint" />
            <mxPoint x="170" y="520" as="targetPoint" />
          </mxGeometry>
        </mxCell>
        <mxCell id="nITirE5ctKMhn2N52Sr5-31" value="" style="endArrow=classic;html=1;rounded=0;entryX=0;entryY=0.5;entryDx=0;entryDy=0;" edge="1" parent="1" target="nITirE5ctKMhn2N52Sr5-20">
          <mxGeometry width="50" height="50" relative="1" as="geometry">
            <mxPoint x="120" y="670" as="sourcePoint" />
            <mxPoint x="170" y="620" as="targetPoint" />
          </mxGeometry>
        </mxCell>
        <mxCell id="nITirE5ctKMhn2N52Sr5-50" value="train-test split" style="rounded=1;whiteSpace=wrap;html=1;" vertex="1" parent="1">
          <mxGeometry x="500" y="350" width="90" height="40" as="geometry" />
        </mxCell>
        <mxCell id="nITirE5ctKMhn2N52Sr5-51" value="" style="endArrow=classic;html=1;rounded=0;entryX=0;entryY=0.5;entryDx=0;entryDy=0;" edge="1" parent="1" target="nITirE5ctKMhn2N52Sr5-50">
          <mxGeometry width="50" height="50" relative="1" as="geometry">
            <mxPoint x="450" y="370" as="sourcePoint" />
            <mxPoint x="500" y="320" as="targetPoint" />
          </mxGeometry>
        </mxCell>
        <mxCell id="nITirE5ctKMhn2N52Sr5-52" value="RobustScaler" style="rounded=1;whiteSpace=wrap;html=1;" vertex="1" parent="1">
          <mxGeometry x="760" y="200" width="110" height="120" as="geometry" />
        </mxCell>
        <mxCell id="nITirE5ctKMhn2N52Sr5-53" value="" style="endArrow=classic;html=1;rounded=0;entryX=0;entryY=0.25;entryDx=0;entryDy=0;" edge="1" parent="1" target="nITirE5ctKMhn2N52Sr5-52">
          <mxGeometry width="50" height="50" relative="1" as="geometry">
            <mxPoint x="550" y="350" as="sourcePoint" />
            <mxPoint x="600" y="300" as="targetPoint" />
            <Array as="points">
              <mxPoint x="550" y="230" />
            </Array>
          </mxGeometry>
        </mxCell>
        <mxCell id="nITirE5ctKMhn2N52Sr5-55" value="Test data" style="edgeLabel;html=1;align=center;verticalAlign=middle;resizable=0;points=[];" vertex="1" connectable="0" parent="nITirE5ctKMhn2N52Sr5-53">
          <mxGeometry x="-0.1263" y="-1" relative="1" as="geometry">
            <mxPoint x="-14" as="offset" />
          </mxGeometry>
        </mxCell>
        <mxCell id="nITirE5ctKMhn2N52Sr5-54" value="" style="endArrow=classic;html=1;rounded=0;entryX=0;entryY=0.75;entryDx=0;entryDy=0;" edge="1" parent="1" target="nITirE5ctKMhn2N52Sr5-52">
          <mxGeometry width="50" height="50" relative="1" as="geometry">
            <mxPoint x="590" y="370" as="sourcePoint" />
            <mxPoint x="640" y="320" as="targetPoint" />
            <Array as="points">
              <mxPoint x="680" y="370" />
              <mxPoint x="680" y="290" />
            </Array>
          </mxGeometry>
        </mxCell>
        <mxCell id="nITirE5ctKMhn2N52Sr5-56" value="training data" style="edgeLabel;html=1;align=center;verticalAlign=middle;resizable=0;points=[];" vertex="1" connectable="0" parent="nITirE5ctKMhn2N52Sr5-54">
          <mxGeometry x="0.4733" y="3" relative="1" as="geometry">
            <mxPoint as="offset" />
          </mxGeometry>
        </mxCell>
        <mxCell id="nITirE5ctKMhn2N52Sr5-57" value="" style="endArrow=classic;html=1;rounded=0;entryX=0.5;entryY=0;entryDx=0;entryDy=0;" edge="1" parent="1" target="nITirE5ctKMhn2N52Sr5-59">
          <mxGeometry width="50" height="50" relative="1" as="geometry">
            <mxPoint x="870" y="230" as="sourcePoint" />
            <mxPoint x="920" y="180" as="targetPoint" />
            <Array as="points">
              <mxPoint x="1050" y="230" />
            </Array>
          </mxGeometry>
        </mxCell>
        <mxCell id="nITirE5ctKMhn2N52Sr5-58" value="" style="endArrow=classic;html=1;rounded=0;" edge="1" parent="1" target="nITirE5ctKMhn2N52Sr5-59">
          <mxGeometry width="50" height="50" relative="1" as="geometry">
            <mxPoint x="870" y="290" as="sourcePoint" />
            <mxPoint x="920" y="240" as="targetPoint" />
          </mxGeometry>
        </mxCell>
        <mxCell id="nITirE5ctKMhn2N52Sr5-59" value="Ordinary Least Squares" style="rounded=1;whiteSpace=wrap;html=1;" vertex="1" parent="1">
          <mxGeometry x="990" y="260" width="120" height="60" as="geometry" />
        </mxCell>
        <mxCell id="nITirE5ctKMhn2N52Sr5-60" value="median absolute error" style="rounded=1;whiteSpace=wrap;html=1;fillColor=#d5e8d4;strokeColor=#82b366;" vertex="1" parent="1">
          <mxGeometry x="765" y="420" width="90" height="40" as="geometry" />
        </mxCell>
        <mxCell id="nITirE5ctKMhn2N52Sr5-62" value="Ordinary Least Squares" style="rounded=1;whiteSpace=wrap;html=1;" vertex="1" parent="1">
          <mxGeometry x="870" y="420" width="100" height="40" as="geometry" />
        </mxCell>
        <mxCell id="nITirE5ctKMhn2N52Sr5-70" value="" style="edgeStyle=orthogonalEdgeStyle;rounded=0;orthogonalLoop=1;jettySize=auto;html=1;" edge="1" parent="1" source="nITirE5ctKMhn2N52Sr5-63" target="nITirE5ctKMhn2N52Sr5-64">
          <mxGeometry relative="1" as="geometry" />
        </mxCell>
        <mxCell id="nITirE5ctKMhn2N52Sr5-63" value="alpha" style="ellipse;whiteSpace=wrap;html=1;aspect=fixed;fillColor=#dae8fc;strokeColor=#6c8ebf;" vertex="1" parent="1">
          <mxGeometry x="780" y="500" width="40" height="40" as="geometry" />
        </mxCell>
        <mxCell id="nITirE5ctKMhn2N52Sr5-69" value="" style="edgeStyle=orthogonalEdgeStyle;rounded=0;orthogonalLoop=1;jettySize=auto;html=1;" edge="1" parent="1" source="nITirE5ctKMhn2N52Sr5-64" target="nITirE5ctKMhn2N52Sr5-62">
          <mxGeometry relative="1" as="geometry" />
        </mxCell>
        <mxCell id="nITirE5ctKMhn2N52Sr5-64" value="Ridge loss function (penalizes large magnitudes)" style="rounded=1;whiteSpace=wrap;html=1;" vertex="1" parent="1">
          <mxGeometry x="860" y="490" width="120" height="60" as="geometry" />
        </mxCell>
        <mxCell id="nITirE5ctKMhn2N52Sr5-66" value="" style="endArrow=classic;html=1;rounded=0;entryX=-0.019;entryY=0.554;entryDx=0;entryDy=0;entryPerimeter=0;" edge="1" parent="1" target="nITirE5ctKMhn2N52Sr5-65">
          <mxGeometry width="50" height="50" relative="1" as="geometry">
            <mxPoint x="680" y="370" as="sourcePoint" />
            <mxPoint x="730" y="490" as="targetPoint" />
            <Array as="points">
              <mxPoint x="680" y="490" />
            </Array>
          </mxGeometry>
        </mxCell>
        <mxCell id="nITirE5ctKMhn2N52Sr5-74" value="training data" style="edgeLabel;html=1;align=center;verticalAlign=middle;resizable=0;points=[];" vertex="1" connectable="0" parent="nITirE5ctKMhn2N52Sr5-66">
          <mxGeometry x="0.5298" y="-1" relative="1" as="geometry">
            <mxPoint as="offset" />
          </mxGeometry>
        </mxCell>
        <mxCell id="nITirE5ctKMhn2N52Sr5-68" value="" style="endArrow=classic;html=1;rounded=0;entryX=0.5;entryY=1;entryDx=0;entryDy=0;" edge="1" parent="1" target="nITirE5ctKMhn2N52Sr5-62">
          <mxGeometry width="50" height="50" relative="1" as="geometry">
            <mxPoint x="920" y="480" as="sourcePoint" />
            <mxPoint x="930" y="470" as="targetPoint" />
          </mxGeometry>
        </mxCell>
        <mxCell id="nITirE5ctKMhn2N52Sr5-73" value="" style="endArrow=classic;html=1;rounded=0;entryX=0.5;entryY=1;entryDx=0;entryDy=0;exitX=1.001;exitY=0.534;exitDx=0;exitDy=0;exitPerimeter=0;" edge="1" parent="1" source="nITirE5ctKMhn2N52Sr5-65">
          <mxGeometry width="50" height="50" relative="1" as="geometry">
            <mxPoint x="1020" y="490" as="sourcePoint" />
            <mxPoint x="1060" y="320" as="targetPoint" />
            <Array as="points">
              <mxPoint x="1060" y="500" />
            </Array>
          </mxGeometry>
        </mxCell>
        <mxCell id="nITirE5ctKMhn2N52Sr5-77" value="Optimal alpha" style="edgeLabel;html=1;align=center;verticalAlign=middle;resizable=0;points=[];" vertex="1" connectable="0" parent="nITirE5ctKMhn2N52Sr5-73">
          <mxGeometry x="-0.271" relative="1" as="geometry">
            <mxPoint as="offset" />
          </mxGeometry>
        </mxCell>
        <mxCell id="nITirE5ctKMhn2N52Sr5-76" value="cross-validation tool" style="text;html=1;strokeColor=none;fillColor=none;align=center;verticalAlign=middle;whiteSpace=wrap;rounded=0;" vertex="1" parent="1">
          <mxGeometry x="800" y="550" width="120" height="30" as="geometry" />
        </mxCell>
        <mxCell id="nITirE5ctKMhn2N52Sr5-78" value="Cholesterol(&quot;chol&quot;)" style="ellipse;whiteSpace=wrap;html=1;" vertex="1" parent="1">
          <mxGeometry x="1170" y="270" width="120" height="40" as="geometry" />
        </mxCell>
        <mxCell id="nITirE5ctKMhn2N52Sr5-79" value="" style="endArrow=classic;html=1;rounded=0;entryX=0;entryY=0.5;entryDx=0;entryDy=0;exitX=1;exitY=0.5;exitDx=0;exitDy=0;" edge="1" parent="1" source="nITirE5ctKMhn2N52Sr5-59" target="nITirE5ctKMhn2N52Sr5-78">
          <mxGeometry width="50" height="50" relative="1" as="geometry">
            <mxPoint x="1110" y="295" as="sourcePoint" />
            <mxPoint x="1160" y="245" as="targetPoint" />
          </mxGeometry>
        </mxCell>
        <mxCell id="nITirE5ctKMhn2N52Sr5-80" value="median absolute error" style="rounded=1;whiteSpace=wrap;html=1;" vertex="1" parent="1">
          <mxGeometry x="1185" y="360" width="90" height="40" as="geometry" />
        </mxCell>
        <mxCell id="nITirE5ctKMhn2N52Sr5-81" value="" style="endArrow=classic;html=1;rounded=0;entryX=0.5;entryY=0;entryDx=0;entryDy=0;exitX=0.5;exitY=1;exitDx=0;exitDy=0;" edge="1" parent="1" source="nITirE5ctKMhn2N52Sr5-78" target="nITirE5ctKMhn2N52Sr5-80">
          <mxGeometry width="50" height="50" relative="1" as="geometry">
            <mxPoint x="1170" y="360" as="sourcePoint" />
            <mxPoint x="1220" y="310" as="targetPoint" />
          </mxGeometry>
        </mxCell>
      </root>
    </mxGraphModel>
  </diagram>
</mxfile>
